<svg xmlns="http://www.w3.org/2000/svg" width="1100" height="620" viewBox="0 0 1100 620">
<defs><marker id="arrow" markerWidth="10" markerHeight="10" refX="9" refY="3" orient="auto" markerUnits="strokeWidth"><path d="M0,0 L0,6 L9,3 z" fill="#79c7f2"/></marker></defs>
<rect width="100%" height="100%" fill="#08110d"/>
<circle cx="910" cy="90" r="190" fill="#79c7f2" opacity="0.11"/>
<circle cx="170" cy="520" r="210" fill="#d7ff62" opacity="0.09"/>
<text x="55" y="70" fill="#f2f8f0" font-size="34" font-weight="800">Application Architecture Diagram</text>
<line x1="320" y1="172" x2="410" y2="140" stroke="#79c7f2" stroke-width="4" marker-end="url(#arrow)"/><line x1="320" y1="172" x2="410" y2="260" stroke="#79c7f2" stroke-width="4" marker-end="url(#arrow)"/><line x1="630" y1="140" x2="720" y2="140" stroke="#79c7f2" stroke-width="4" marker-end="url(#arrow)"/><line x1="630" y1="260" x2="720" y2="260" stroke="#79c7f2" stroke-width="4" marker-end="url(#arrow)"/><line x1="320" y1="172" x2="410" y2="425" stroke="#79c7f2" stroke-width="4" marker-end="url(#arrow)"/><line x1="630" y1="425" x2="720" y2="425" stroke="#79c7f2" stroke-width="4" marker-end="url(#arrow)"/>
<rect x="90" y="130" width="230" height="85" rx="18" fill="#24365a" stroke="#d7ff62" stroke-opacity="0.35"/><text x="205.0" y="168.5" text-anchor="middle" fill="#f2f8f0" font-size="21" font-weight="700">app.py UI Layer</text><rect x="410" y="100" width="220" height="80" rx="18" fill="#1b3028" stroke="#d7ff62" stroke-opacity="0.35"/><text x="520.0" y="136.0" text-anchor="middle" fill="#f2f8f0" font-size="21" font-weight="700">data_loader.py</text><rect x="410" y="220" width="220" height="80" rx="18" fill="#1b3028" stroke="#d7ff62" stroke-opacity="0.35"/><text x="520.0" y="256.0" text-anchor="middle" fill="#f2f8f0" font-size="21" font-weight="700">preprocessing.py</text><rect x="720" y="100" width="240" height="80" rx="18" fill="#1b3028" stroke="#d7ff62" stroke-opacity="0.35"/><text x="840.0" y="136.0" text-anchor="middle" fill="#f2f8f0" font-size="21" font-weight="700">visualizations.py</text><rect x="720" y="220" width="240" height="80" rx="18" fill="#1b3028" stroke="#d7ff62" stroke-opacity="0.35"/><text x="840.0" y="256.0" text-anchor="middle" fill="#f2f8f0" font-size="21" font-weight="700">map_utils.py</text><rect x="410" y="385" width="220" height="80" rx="18" fill="#17251f" stroke="#d7ff62" stroke-opacity="0.35"/><text x="520.0" y="421.0" text-anchor="middle" fill="#f2f8f0" font-size="21" font-weight="700">utils.py Exports</text><rect x="720" y="385" width="240" height="80" rx="18" fill="#17251f" stroke="#d7ff62" stroke-opacity="0.35"/><text x="840.0" y="421.0" text-anchor="middle" fill="#f2f8f0" font-size="21" font-weight="700">Data & Assets</text>
</svg>