<svg xmlns="http://www.w3.org/2000/svg" width="1100" height="620" viewBox="0 0 1100 620">
<defs><marker id="arrow" markerWidth="10" markerHeight="10" refX="9" refY="3" orient="auto" markerUnits="strokeWidth"><path d="M0,0 L0,6 L9,3 z" fill="#79c7f2"/></marker></defs>
<rect width="100%" height="100%" fill="#08110d"/>
<circle cx="910" cy="90" r="190" fill="#79c7f2" opacity="0.11"/>
<circle cx="170" cy="520" r="210" fill="#d7ff62" opacity="0.09"/>
<text x="55" y="70" fill="#f2f8f0" font-size="34" font-weight="800">Data Processing Workflow</text>
<line x1="290" y1="193" x2="350" y2="193" stroke="#79c7f2" stroke-width="4" marker-end="url(#arrow)"/><line x1="580" y1="193" x2="650" y2="193" stroke="#79c7f2" stroke-width="4" marker-end="url(#arrow)"/><line x1="765" y1="235" x2="330" y2="350" stroke="#79c7f2" stroke-width="4" marker-end="url(#arrow)"/><line x1="430" y1="392" x2="500" y2="392" stroke="#79c7f2" stroke-width="4" marker-end="url(#arrow)"/><line x1="740" y1="392" x2="810" y2="392" stroke="#79c7f2" stroke-width="4" marker-end="url(#arrow)"/>
<rect x="90" y="150" width="200" height="85" rx="18" fill="#17251f" stroke="#d7ff62" stroke-opacity="0.35"/><text x="190.0" y="188.5" text-anchor="middle" fill="#f2f8f0" font-size="21" font-weight="700">Load Sheets</text><rect x="350" y="150" width="230" height="85" rx="18" fill="#1b3028" stroke="#d7ff62" stroke-opacity="0.35"/><text x="465.0" y="188.5" text-anchor="middle" fill="#f2f8f0" font-size="21" font-weight="700">Standardize Columns</text><rect x="650" y="150" width="230" height="85" rx="18" fill="#1b3028" stroke="#d7ff62" stroke-opacity="0.35"/><text x="765.0" y="188.5" text-anchor="middle" fill="#f2f8f0" font-size="21" font-weight="700">Clean Text & EIIN</text><rect x="190" y="350" width="240" height="85" rx="18" fill="#24365a" stroke="#d7ff62" stroke-opacity="0.35"/><text x="310.0" y="388.5" text-anchor="middle" fill="#f2f8f0" font-size="21" font-weight="700">Handle Missing Data</text><rect x="500" y="350" width="240" height="85" rx="18" fill="#24365a" stroke="#d7ff62" stroke-opacity="0.35"/><text x="620.0" y="388.5" text-anchor="middle" fill="#f2f8f0" font-size="21" font-weight="700">Create Search Field</text><rect x="810" y="350" width="220" height="85" rx="18" fill="#17251f" stroke="#d7ff62" stroke-opacity="0.35"/><text x="920.0" y="388.5" text-anchor="middle" fill="#f2f8f0" font-size="21" font-weight="700">Export Clean CSV</text>
</svg>