<svg xmlns="http://www.w3.org/2000/svg" width="1100" height="620" viewBox="0 0 1100 620">
<defs><marker id="arrow" markerWidth="10" markerHeight="10" refX="9" refY="3" orient="auto" markerUnits="strokeWidth"><path d="M0,0 L0,6 L9,3 z" fill="#79c7f2"/></marker></defs>
<rect width="100%" height="100%" fill="#08110d"/>
<circle cx="910" cy="90" r="190" fill="#79c7f2" opacity="0.11"/>
<circle cx="170" cy="520" r="210" fill="#d7ff62" opacity="0.09"/>
<text x="55" y="70" fill="#f2f8f0" font-size="34" font-weight="800">System Workflow Diagram</text>
<line x1="280" y1="205" x2="330" y2="205" stroke="#79c7f2" stroke-width="4" marker-end="url(#arrow)"/><line x1="540" y1="205" x2="590" y2="205" stroke="#79c7f2" stroke-width="4" marker-end="url(#arrow)"/><line x1="800" y1="205" x2="850" y2="205" stroke="#79c7f2" stroke-width="4" marker-end="url(#arrow)"/><line x1="700" y1="250" x2="430" y2="360" stroke="#79c7f2" stroke-width="4" marker-end="url(#arrow)"/><line x1="700" y1="250" x2="685" y2="360" stroke="#79c7f2" stroke-width="4" marker-end="url(#arrow)"/><line x1="955" y1="250" x2="945" y2="360" stroke="#79c7f2" stroke-width="4" marker-end="url(#arrow)"/>
<rect x="70" y="160" width="210" height="90" rx="18" fill="#17251f" stroke="#d7ff62" stroke-opacity="0.35"/><text x="175.0" y="201.0" text-anchor="middle" fill="#f2f8f0" font-size="21" font-weight="700">Excel Workbook</text><rect x="330" y="160" width="210" height="90" rx="18" fill="#1b3028" stroke="#d7ff62" stroke-opacity="0.35"/><text x="435.0" y="201.0" text-anchor="middle" fill="#f2f8f0" font-size="21" font-weight="700">Cached Loader</text><rect x="590" y="160" width="210" height="90" rx="18" fill="#1b3028" stroke="#d7ff62" stroke-opacity="0.35"/><text x="695.0" y="201.0" text-anchor="middle" fill="#f2f8f0" font-size="21" font-weight="700">Preprocessing</text><rect x="850" y="160" width="210" height="90" rx="18" fill="#24365a" stroke="#d7ff62" stroke-opacity="0.35"/><text x="955.0" y="201.0" text-anchor="middle" fill="#f2f8f0" font-size="21" font-weight="700">Interactive Dashboard</text><rect x="330" y="360" width="190" height="90" rx="18" fill="#24365a" stroke="#d7ff62" stroke-opacity="0.35"/><text x="425.0" y="401.0" text-anchor="middle" fill="#f2f8f0" font-size="21" font-weight="700">Charts</text><rect x="590" y="360" width="190" height="90" rx="18" fill="#24365a" stroke="#d7ff62" stroke-opacity="0.35"/><text x="685.0" y="401.0" text-anchor="middle" fill="#f2f8f0" font-size="21" font-weight="700">Filtered Table</text><rect x="850" y="360" width="190" height="90" rx="18" fill="#17251f" stroke="#d7ff62" stroke-opacity="0.35"/><text x="945.0" y="401.0" text-anchor="middle" fill="#f2f8f0" font-size="21" font-weight="700">Downloads</text>
</svg>