<svg xmlns="http://www.w3.org/2000/svg" width="1100" height="620" viewBox="0 0 1100 620">
<defs><marker id="arrow" markerWidth="10" markerHeight="10" refX="9" refY="3" orient="auto" markerUnits="strokeWidth"><path d="M0,0 L0,6 L9,3 z" fill="#79c7f2"/></marker></defs>
<rect width="100%" height="100%" fill="#08110d"/>
<circle cx="910" cy="90" r="190" fill="#79c7f2" opacity="0.11"/>
<circle cx="170" cy="520" r="210" fill="#d7ff62" opacity="0.09"/>
<text x="55" y="70" fill="#f2f8f0" font-size="34" font-weight="800">User Interaction Flowchart</text>
<line x1="290" y1="182" x2="370" y2="182" stroke="#79c7f2" stroke-width="4" marker-end="url(#arrow)"/><line x1="560" y1="182" x2="640" y2="182" stroke="#79c7f2" stroke-width="4" marker-end="url(#arrow)"/><line x1="735" y1="225" x2="350" y2="345" stroke="#79c7f2" stroke-width="4" marker-end="url(#arrow)"/><line x1="735" y1="225" x2="625" y2="345" stroke="#79c7f2" stroke-width="4" marker-end="url(#arrow)"/><line x1="730" y1="388" x2="795" y2="388" stroke="#79c7f2" stroke-width="4" marker-end="url(#arrow)"/>
<rect x="100" y="140" width="190" height="85" rx="18" fill="#17251f" stroke="#d7ff62" stroke-opacity="0.35"/><text x="195.0" y="178.5" text-anchor="middle" fill="#f2f8f0" font-size="21" font-weight="700">Open App</text><rect x="370" y="140" width="190" height="85" rx="18" fill="#1b3028" stroke="#d7ff62" stroke-opacity="0.35"/><text x="465.0" y="178.5" text-anchor="middle" fill="#f2f8f0" font-size="21" font-weight="700">Select Sheet</text><rect x="640" y="140" width="190" height="85" rx="18" fill="#1b3028" stroke="#d7ff62" stroke-opacity="0.35"/><text x="735.0" y="178.5" text-anchor="middle" fill="#f2f8f0" font-size="21" font-weight="700">Apply Filters</text><rect x="245" y="345" width="210" height="85" rx="18" fill="#24365a" stroke="#d7ff62" stroke-opacity="0.35"/><text x="350.0" y="383.5" text-anchor="middle" fill="#f2f8f0" font-size="21" font-weight="700">Explore Charts</text><rect x="520" y="345" width="210" height="85" rx="18" fill="#24365a" stroke="#d7ff62" stroke-opacity="0.35"/><text x="625.0" y="383.5" text-anchor="middle" fill="#f2f8f0" font-size="21" font-weight="700">Inspect Records</text><rect x="795" y="345" width="210" height="85" rx="18" fill="#17251f" stroke="#d7ff62" stroke-opacity="0.35"/><text x="900.0" y="383.5" text-anchor="middle" fill="#f2f8f0" font-size="21" font-weight="700">Download Results</text>
</svg>